# xmcd
#
# Track frame offsets: 
#        150
#        18922
#        34872
#        49475
#        68637
#        84637
#        100570
#        118970
#        133975
#        151437
#        163115
#        178550
#        196947
#        214405
#
# Disc length: 3092 seconds
#
# Revision: 1
# Processed by: cddbd v1.5.2PL0 Copyright (c) Steve Scherf et al.
# Submitted via: ExactAudioCopy v1.0b3
#
DISCID=c70c120e
DTITLE=Tina Novak - Been Around The World
DYEAR=2002
DGENRE=Soul
TTITLE0=Been Around The World
TTITLE1=Shoulda Coulda Woulda featuring Misery Ill
TTITLE2=Uh Oh
TTITLE3=Summertime
TTITLE4=Magic
TTITLE5=Salacious
TTITLE6=Still
TTITLE7=Not With Me
TTITLE8=That's What I'm Talkin' About
TTITLE9=Can't Deal Without Your Love
TTITLE10=Can't Get Enough
TTITLE11=Change featuring Buttaphly and Misery Ill
TTITLE12=Let's Go
TTITLE13=Been Around The World (Remix) featuring Misery Ill
EXTD=YEAR: 2002
EXTT0=
EXTT1=
EXTT2=
EXTT3=
EXTT4=
EXTT5=
EXTT6=
EXTT7=
EXTT8=
EXTT9=
EXTT10=
EXTT11=
EXTT12=
EXTT13=
PLAYORDER=
